# xmcd
#
# Track frame offsets:
#	150
#	15577
#	33657
#	55112
#	72220
#	85087
#	94535
#	108867
#	122842
#	138642
#	154617
#	164675
#	175847
#	194707
#	209822
#
# Disc length: 2983 seconds
#
# Revision: 1
# Processed by: cddbd v1.5.1PL0 Copyright (c) Steve Scherf et al.
# Submitted via: CDex 1.50Beta5
#
DISCID=d30ba50f
DTITLE=古澤 巌 - ヴァイオリンの夜
DYEAR=1900
DGENRE=
TTITLE0=ショーロインディゴ
TTITLE1=チャールダーシュ
TTITLE2=ツィゴイネルワイゼン
TTITLE3=ノクターン
TTITLE4=セレナーデ 作品4
TTITLE5=マドリガル
TTITLE6=コンソレーション
TTITLE7=クレモナのヴァイオリン作り
TTITLE8=愛の悲しみ
TTITLE9=ひばり
TTITLE10=そんなことはどうでもいいさ
TTITLE11=感傷的なワルツ 作品51-6
TTITLE12=タイスの瞑想曲
TTITLE13=スパニッシュ・ダンス
TTITLE14=瞑想曲 作品32
EXTD=
EXTT0=
EXTT1=
EXTT2=
EXTT3=
EXTT4=
EXTT5=
EXTT6=
EXTT7=
EXTT8=
EXTT9=
EXTT10=
EXTT11=
EXTT12=
EXTT13=
EXTT14=
PLAYORDER=
